<svg xmlns="http://www.w3.org/2000/svg" viewBox="0 0 759 910.59"><defs><style>.cls-1{fill:#fff;}</style></defs><title>wyvern</title><g id="Layer_1" data-name="Layer 1"><path class="cls-1" d="M408.44,604.51a1.33,1.33,0,0,1-.18-2.44,29.56,29.56,0,0,0,4.15-2.72c-9.67,1.31-12.35,4.62-16.65,13.85-2,8.74.08,15.42,6.45,20.44,1.38,1.23,3.4,2.91,5.68,4.71,10.3-9.08,10.85-13.62,10.87-14.05C418,619.43,414.83,606.63,408.44,604.51Z" transform="translate(-160.5 -100.5)"/><path class="cls-1" d="M603.35,308.37a16.92,16.92,0,0,1,8.64-2.55c5.28,0,9.88,3.06,13.94,5.76,3,2,5.73,3.81,7.53,3.43s3.24-2.48,4.86-4.89a30.64,30.64,0,0,1,3.94-5,26.57,26.57,0,0,0-4-4.52,14.47,14.47,0,0,1-6.07.17l-.11,0h0c0,.05-2.87,4.53-2.63,8.46a1.33,1.33,0,0,1-1.09,1.38,1,1,0,0,1-.24,0,1.3,1.3,0,0,1-1.26-.93c-.73-2.33-2.52-5.93-4.06-6.27-2.81-.61-4-3.63-4.55-5.59-3.54-.54-6.67-.66-8.45.19a54.26,54.26,0,0,0-8.28,5.28,5.2,5.2,0,0,1,.57,2.14A6.06,6.06,0,0,0,603.35,308.37Z" transform="translate(-160.5 -100.5)"/><path class="cls-1" d="M484.55,681.79c3.86,3.22,8.1,5.08,12.11,5a51.46,51.46,0,0,0,18.41-3.47c-7-.75-14.83-1-23-1.24C489.56,682,487.06,681.89,484.55,681.79Z" transform="translate(-160.5 -100.5)"/><path class="cls-1" d="M647.08,302.17a14.83,14.83,0,0,1,3.89-.52,25.33,25.33,0,0,0-3.91-5.64,16.69,16.69,0,0,1-1.62,1.32,16.88,16.88,0,0,1,1.63,4.84Z" transform="translate(-160.5 -100.5)"/><path class="cls-1" d="M526.92,647.77c-2.48-4.8-6.65-12.82-19.3-20.61-4.36-2.12-7.15-3.65-9.19-4.77-2.41-1.32-3.51-1.93-4.43-1.95h0a3.7,3.7,0,0,0-.63.06l-.12,0a1.34,1.34,0,0,1-.51.11h0c-.55.15-1.22.37-2.1.67l-.92.31c-22.33,12-19.87,31.67-17.78,39.58.15.58.33,1.16.5,1.73,14.8,2.39,28.78,3.09,39.63,3.64,7.55.38,13.58.68,17.31,1.44a28,28,0,0,0-2-19.48Z" transform="translate(-160.5 -100.5)"/><path class="cls-1" d="M540,100.5c-209.59,0-379.5,169.91-379.5,379.5S330.41,859.5,540,859.5,919.5,689.59,919.5,480,749.59,100.5,540,100.5ZM771.06,527.58c0,.09-1.86,9.55-13.58,9.55a8.8,8.8,0,0,1-8.62-5.76l-.63-2.46a1.15,1.15,0,0,1-1.09-.54c-9.75-16.46-13.78-26.4-14.91-29.42-4.22,1.94-13.59,18.59-21.21,32.12-6.57,11.68-13.36,23.75-18.29,29.53-2.66,3.12-9.1,4.11-17,4.11-7.17,0-15.54-.81-23.42-1.57-6.87-.66-13.34-1.28-17.85-1.23a109.89,109.89,0,0,1-10.89,6.14c4.26,7.5,7.59,20.61,4.85,36.45-2.29,13.25-9.81,33-32.61,51.89-1.91,1.59-3.29,6.89,7.33,24.49,21.24,1.62,35.45-1.44,46.85-10.22a29.19,29.19,0,0,1-7-4.51,19.65,19.65,0,0,1-6.66-19.26,1.33,1.33,0,0,1,2.41-.48c.34.52,8.65,12.72,22.35,7.27,12.23-4.86,29.33-10.61,41.13-10.43a18.9,18.9,0,0,1,9.27,2.13,1.32,1.32,0,0,1,0,2.28c-.21.13-21.68,12.85-23.55,26.27a1.69,1.69,0,0,1-.13.42c-7.39,14.52-19.82,25.12-37,31.48a1.25,1.25,0,0,1-.46.09,1.36,1.36,0,0,1-1.12-.61,1.33,1.33,0,0,1,.18-1.66c2.2-2.21,7.76-9,7-13.63a21.58,21.58,0,0,1,.77-9.14,199.26,199.26,0,0,1-20.4,10.9l-.1,0c-6.67,2.51-14.47,3.79-23.74,3.95,7.12,10,14.63,19.5,19.22,25.29,1.08,1.36,2,2.51,2.72,3.44,5,2.41,6.47,3,14.3-2.57,1.66-1.61,2.9-3,4-4.31,2.09-2.41,3.74-4.32,6.76-5.77a45.91,45.91,0,0,1,11.59-3.68,1.37,1.37,0,0,1,.87.17,1.32,1.32,0,0,1,.82-.52l4.4-.82c.58-.07,12.1-1.27,18.67,9.16a1.32,1.32,0,0,1-1.26,2c-3.26-.35-12.45-.64-15.8,2.12a10.67,10.67,0,0,1-2.59,1.63,6.58,6.58,0,0,1-1.55,1.3,1.33,1.33,0,0,1-.62.16,14.33,14.33,0,0,1-5.29-.81c-1.57-.51-2.37-.77-6.56,1.59-2.42,1.36-4.19,2.48-5.46,3.37,8.44-1.68,19.44-2.86,25.76.37l.21-.18a1.28,1.28,0,0,1,.82-.34c.27,0,6.53-.27,11.48,3.2,6,4.22,7.35,13.46,7.41,13.85a1.33,1.33,0,0,1-2.12,1.24c-9.65-7.38-15.1-4.92-15.15-4.89l-.24.09-2,.55a8.72,8.72,0,0,1,1.92,3.22l6.56,1.17a1.37,1.37,0,0,1,.64.31c.14.12,3.3,2.92,4.13,6.34,1.21,5-1.49,12-1.6,12.25a1.32,1.32,0,0,1-1.24.84h0a1.32,1.32,0,0,1-1.22-.91c-2.93-9-10.21-9.27-10.52-9.28a1.31,1.31,0,0,1-.84-.32l-.11-.1a7.19,7.19,0,0,1-3.26-.52,1.34,1.34,0,0,1-.79-1.12c-.44-6.6-4-6.82-10.25-6.65a23.1,23.1,0,0,1-7.15-.5c-1.47-.44-6-1.78-15.29,1.31a1.31,1.31,0,0,1-1.06-.11c-3.14-1.76-6.25-.73-9.27.26-2.65.88-5.15,1.7-7.34.39-1.57-.94-2.65-2.82-3.34-5.88-1.53.23-2.88.36-4.09.47-3.64.34-5.16.56-6.42,2.44-2.47,3.67-11.77,10.92-12.17,11.23a1.35,1.35,0,0,1-.81.28,1.38,1.38,0,0,1-.62-.15,1.83,1.83,0,0,1-.31-.24l-1.25,1.68a1.34,1.34,0,0,1-.86.52c-.13,0-3.77.83-2.88,8.44a1.34,1.34,0,0,1-.4,1.12,1.36,1.36,0,0,1-.91.36l-.24,0c-.1,0-9.7-1.89-9.7-13.76a9,9,0,0,1,5.89-8.8l2.32-.59a1.29,1.29,0,0,1,.64-1.1c16.36-9.69,26.29-13.74,29.39-14.9-1.25-5-11.24-19.75-22.19-33.87-6.89-.56-13.82-1.47-20.54-2.35-6.35-.84-12.36-1.62-18.08-2.09,0,.15.06.3.08.45.37,2.06.82,4.63,1.17,8.44a1.34,1.34,0,0,1-.85,1.36c-2.71,1-5,1.7-7,2.29-7.68,2.26-10.56,3.11-17,19a1.33,1.33,0,0,1-1.71.74c-16.79-6.61-18.1-6.33-35.13,7.67a1.33,1.33,0,0,1-1.83-.14c-11.44-12.83-13.78-13.31-31.29-6.34a1.35,1.35,0,0,1-1.63-.55c-1.35-2.26-2.42-4.3-3.35-6.1-4.66-8.95-5.91-11.35-26.81-4.25a1.35,1.35,0,0,1-1.23-.2,1.34,1.34,0,0,1-.52-1.14,58.27,58.27,0,0,0-2.5-20.67,6.55,6.55,0,0,1-2.44-1.16c-2.15-1.4-6.15-4-14.95-4.29a1.32,1.32,0,0,1-1-.52,1.36,1.36,0,0,1-.23-1.12A110.41,110.41,0,0,0,414.68,669c-1-.44-1.93-.89-2.9-1.37-3.42-1.68-7-3.68-11.21-6-2.56-1.42-5.39-3-8.63-4.74l-.23-.16c-2.12-1.75-4-3.27-5.77-4.66-9.94-7.93-14.48-11.55-18.08-26.17-3.1-13,2.83-29.28,14.1-38.84,11.79-8.73,23.27-11.35,37.91-13.77-.32-.7-.68-1.41-1.07-2.13a1.28,1.28,0,0,1-.12-1,1.33,1.33,0,0,1,.64-.79,87.19,87.19,0,0,1,8.16-3.87c9-3.88,12.41-5.33,12.28-27.67a1.26,1.26,0,0,1,.41-1,1.31,1.31,0,0,1,1-.37c9.9.47,16.34-6.25,18.49-8.91-14.57-9.18-32.14-4.67-33.61-3.45a11.85,11.85,0,0,1-3.74,2.8c-5.31,4.51-7.37,9.64-2.79,17.69a1.32,1.32,0,0,1-1.15,2,1.24,1.24,0,0,1-.46-.08c-.13-.05-12.86-5-11.24-18.38.74-6.06,6.2-9.67,8.39-10.88-3.56-27.69-14.71-41.64-23.49-48.48s-17.66-8.56-21.25-8.1a11.19,11.19,0,0,1-2.56.06c-3.7.27-6.62,1.49-8.63,3.68-4.11,4.45-3.36,11.51-3.36,11.58a1.3,1.3,0,0,1-.72,1.33,1.26,1.26,0,0,1-.59.15,1.3,1.3,0,0,1-.91-.37c-3.58-3.38-8.9-11.85-3.42-19.71,5.13-7.35,13.72-8.2,16.22-8.29,4.62-4.61,14.28-17.16,14.28-41.36,0-28.35-23.44-43.18-28.46-44.22a13.42,13.42,0,0,1-1.89-.55c-4.28-1.17-8.19-.09-11.61,3.23a20.52,20.52,0,0,0-4.12,5.79,1.32,1.32,0,0,1-1.22.8h0a1.31,1.31,0,0,1-1.21-.81,13.78,13.78,0,0,1,2.57-14.72c5.56-6.2,15.94-5.38,16.38-5.34h.06l.14,0c7.3-7.08,22.56-25.18,22.56-46,0-18.72-21.17-56.51-33.82-79.09-4.74-8.46-8.54-15.25-10.11-18.95-1.18-.33-3-1-3-2.66a2.09,2.09,0,0,1,.25-1c-5.32-4.61-16.89-4.46-17-4.46a1.33,1.33,0,0,1-.94-2.29c4.24-4,8.68-5.95,13.2-5.64,6.67.47,11.06,5.62,11.53,6.2a3.52,3.52,0,0,1,.91,2.13,1.38,1.38,0,0,1,.57.31c45.08,42.27,90.72,76.61,124.05,101.68,25.4,19.11,42.17,31.74,46.76,38.74,7.43,11.34,3.69,20.6,1.73,24.05-3,5.35-8.09,8.68-12.86,8.51-2.46-.1-5.17-.44-7.78-.77-6.63-.84-13.49-1.71-15.23,1.63-1.93,3.7-.36,6.25,4.91,13.77,2.17,3.11,4.87,7,7.91,12,8.64,14.21,8.13,40,7.73,48,6-3,23.76-10.88,43.63-8.81,10.5,1.1,21.37,5.36,28.15,9,6.5.35,12-.09,15.68-1.25-10.6-32.12-37.37-24.49-38.52-24.14a1.31,1.31,0,0,1-1.19-.23,1.34,1.34,0,0,1-.52-1.1c1-25.43-23.94-33-25-33.31a1.28,1.28,0,0,1-.83-.71,1.32,1.32,0,0,1,0-1.1c13.54-30.65-3.34-48.07-3.51-48.24a1.33,1.33,0,0,1-.38-1.07,1.28,1.28,0,0,1,.58-1c13.86-9.24,20.15-27,21.7-32-8.56-1.83-12.85-5.69-17.87-10.87C502.65,281,501.12,259.7,501.06,258.8a1.35,1.35,0,0,1,.53-1.15,1.31,1.31,0,0,1,1.25-.18,187.44,187.44,0,0,1,18.22,8,99.85,99.85,0,0,0,13.33,5.74c6.91,2.16,14.57,4.35,17.43,5.16.17-.47.24-.69.27-.8a1.46,1.46,0,0,1,.71-.92c-2-1.83-6.36-2.93-10.61-4-1.23-.31-2.47-.62-3.69-1-7.45-2.05-13.2-7.68-16.64-16.3a44,44,0,0,1-3-12.37,1.32,1.32,0,0,1,2.09-1.16c4.1,2.9,9.68,4.4,15.59,6,5.37,1.45,10.93,2.95,15.68,5.63A26.07,26.07,0,0,1,568.61,261a19.58,19.58,0,0,1,7.45-.33,45.79,45.79,0,0,0,12.18-.14,20,20,0,0,1,8.2-5.61c6.42-2.17,12.46.54,14.08,4.44,1.22,2.93,6.31,7.14,9.13,9.23a27.19,27.19,0,0,1,5.48-5.36c3.63-2.35,9.28-2.34,13.82-2.35,1.9,0,4.27,0,4.82-.29a11.15,11.15,0,0,1,10.36.21,5,5,0,0,1,2.65,4.41,13.91,13.91,0,0,1-4.76,9.88c1.42,5.73,1,10.22-.2,13.68a34.35,34.35,0,0,1,3.81,13.07l1.28.13c8-5.12,15.08-17.27,17.79-22.32,4-7.45,12.08-10.69,16.54-11.95,12.64-3.58,17.1-6.55,17.14-6.58a1.32,1.32,0,0,1,1.23-.14,1.29,1.29,0,0,1,.81.93c1.32,5.6-4.95,9.21-11.59,13-4.5,2.59-9.16,5.27-11.42,8.53-.79,1.15-1.67,2.56-2.68,4.2-3,4.76-6.8,11-11.72,15.37a7.22,7.22,0,0,0,3.61-1.29c5.43-4.36,17.75-10.74,29.53-7,10,3.18,18.78-6.91,18.87-7a1.35,1.35,0,0,1,1.55-.35,1.34,1.34,0,0,1,.77,1.39c0,.15-2.2,15.23-15.39,16a38.82,38.82,0,0,1-6.06-.28c-5.86-.58-11.92-1.18-19.08,5.59-3.36,3.19-9,4.37-15,4.27A65.44,65.44,0,0,1,682,319.57c3.29,2.2,6,1.94,9.25,1.64s6.83-.64,11.3,1.54c4.84,2.37,3.93,8.35,3.89,8.6a1.3,1.3,0,0,1-.75,1,1.29,1.29,0,0,1-1.24-.06c-.06,0-6.27-3.64-13.05-1.41-5.34,1.76-11.64,2.31-21.51-5.45-5.55-4.36-10.85-6.75-14.88-7.62a18.88,18.88,0,0,1,2,5.17,3.2,3.2,0,0,1,1.7,1.42c2.1,3.14,2.1,7.9,0,11.85a13.12,13.12,0,0,1-11.64,7,15.79,15.79,0,0,0-.13,4.67,1.31,1.31,0,0,1-1.32,1.45c-1.81,0-3.17-1.68-4.6-3.47-1-1.2-2.3-2.85-3.14-2.85-1.55,0-1.94,3.39-2,3.42a1.29,1.29,0,0,1-.6,1,1.33,1.33,0,0,1-1.15.14c-1.54-.53-2.37-2-3.17-3.43-1-1.71-1.64-2.75-2.8-2.82-.45,0-.57.12-.63.19-.56.64-.48,2.59-.24,3.69a1.35,1.35,0,0,1-.63,1.42,1.31,1.31,0,0,1-1.53-.14,10.61,10.61,0,0,1-2.62-3.76,19.68,19.68,0,0,0-3.61-5.41c-3.34-3.63-13.43-4.91-21.06-4.91-4.78,0-8.57-4.12-11.07-6.85a7.42,7.42,0,0,1-5.3,3.38c-3.35.42-6.95-1.48-9.87-5.22a40.43,40.43,0,0,0-5.08-5.27c-2.4,13.85-.21,25.2,6.36,32.92,5.91,7,15.28,10.55,26.39,10.11,20.61-.8,27.64,11.83,32.29,20.19.89,1.61,1.74,3.13,2.55,4.32,1.94,2.82,6.44,4.47,11.65,6.38,8.08,2.95,18.12,6.62,23,16.79,5.8,12-1.76,27.91-4.37,32.75,4.48,1.72,16.66,8,17.43,26.21.84,7.5-2.17,17-7.16,22.56a12.08,12.08,0,0,1-6,3.95c1.48,6.08,3.17,20.12-10.32,26.51-.2.78-.4,2.58-.59,4.21-.13,1.16-.28,2.43-.45,3.74,5.15.17,10.87,3.31,16.89,6.64,2.18,1.2,4.43,2.45,6.65,3.54a1.16,1.16,0,0,1,.37.29,2.37,2.37,0,0,0,2.05,1c6-.33,17.65-17.94,27-32.09,6.72-10.19,13.07-19.82,17.31-23.28,2.48-5.09,3.07-6.59-2.56-14.54-1.62-1.67-3.06-2.92-4.33-4-2.4-2.08-4.3-3.72-5.73-6.7a46,46,0,0,1-3.67-11.54,1.21,1.21,0,0,1,.25-.9h0a1.13,1.13,0,0,1-.59-.8l-.82-4.4c-.07-.56-1.25-12,9.08-18.49a1.15,1.15,0,0,1,1.21,0,1.13,1.13,0,0,1,.53,1.09c-.35,3.28-.64,12.53,2.16,15.93a10.76,10.76,0,0,1,1.62,2.58,6.51,6.51,0,0,1,1.29,1.53,1.29,1.29,0,0,1,.15.54,14.21,14.21,0,0,1-.81,5.23c-.53,1.63-.8,2.45,1.6,6.71a61.56,61.56,0,0,0,3.87,6.15c-1.69-8.23-3.18-20,.25-26.57l-.27-.3a1.16,1.16,0,0,1-.29-.71c0-.26-.26-6.47,3.18-11.36,4.17-5.94,13.33-7.28,13.72-7.34a1.17,1.17,0,0,1,1.15.56,1.15,1.15,0,0,1-.08,1.27c-7.47,9.77-4.94,15.29-4.92,15.34a1.8,1.8,0,0,1,.08.21l.64,2.3a8.69,8.69,0,0,1,3.47-2.12l1.19-6.68a1.19,1.19,0,0,1,.27-.55c.12-.13,2.88-3.25,6.24-4.07,5-1.2,11.86,1.48,12.15,1.59a1.15,1.15,0,0,1-.07,2.16c-9.12,3-9.39,10.37-9.4,10.68a1.13,1.13,0,0,1-.27.73l-.16.18a6.94,6.94,0,0,1-.5,3.24,1.14,1.14,0,0,1-1,.68c-6.75.45-7,4.26-6.81,10.44a23,23,0,0,1-.5,7.09c-.44,1.49-1.79,6,1.31,15.4a1.14,1.14,0,0,1-.09.92c-1.8,3.2-.76,6.36.25,9.41.86,2.61,1.67,5.07.4,7.2-.93,1.55-2.83,2.61-5.93,3.29.25,1.59.38,3,.5,4.24.34,3.61.57,5.26,2.52,6.56,3.65,2.45,10.88,11.72,11.19,12.12a1.14,1.14,0,0,1,.11,1.23,1.22,1.22,0,0,1-.37.41l1.86,1.38a1.18,1.18,0,0,1,.45.75c0,.14.85,3.95,8.64,3a1.17,1.17,0,0,1,1,.35A1.12,1.12,0,0,1,771.06,527.58Z" transform="translate(-160.5 -100.5)"/><path class="cls-1" d="M574.52,667.84c-4.44-3.79-1.38-13,1.87-22.77,3.15-9.48,6.72-20.22,1.72-23-9.38-5.12-17.18-6.85-24.05-8.38-7.19-1.59-13.4-3-18.73-7.86-2.15-1.4-2.28-1.49-2.5-2.12l-.14-.15-2.84,1.52-.4.26-.27.21h0l-.07,0-.69.41a9.88,9.88,0,0,1,4.21,4.53c1.15,2.17,2.23,4.22,12.72,6.27a1.32,1.32,0,0,1,1.06,1.09c2.64,16.71,5.08,18.33,16.17,23.21a1.32,1.32,0,0,1,.63,1.84c-5.53,10.31-1.45,20.37,1.25,27,.35.86.68,1.67,1,2.41a1.32,1.32,0,0,1-.08,1.1c-.17.32-.34.64-.51.94l1.52.3c4.71.93,12,2.39,18.49,3.57A114.93,114.93,0,0,0,574.52,667.84Z" transform="translate(-160.5 -100.5)"/><path class="cls-1" d="M648.24,318.51l-.38.42c-.46.51-1,1.12-1.64,1.78.17.43.34.87.49,1.32l3.35.38a44.76,44.76,0,0,0-.82-4.56A2.73,2.73,0,0,0,648.24,318.51Z" transform="translate(-160.5 -100.5)"/><path class="cls-1" d="M227.14,915.29l23.21,59.56L274.59,911l23.2,63.89,24.64-59.56H337l-39.82,94.77L274.3,946.92l-23.9,63.19-37.86-94.82Z" transform="translate(-160.5 -100.5)"/><path class="cls-1" d="M389.76,965.91l-29.09-50.62h15.47l20.37,35.61,20.43-35.61h15.47l-29.2,50.62v38.49H389.76Z" transform="translate(-160.5 -100.5)"/><path class="cls-1" d="M470.82,915.29,495.47,977l25-61.75h14.72l-40,95.8-39.07-95.8Z" transform="translate(-160.5 -100.5)"/><path class="cls-1" d="M619.07,927.93H583.34v21.41H618V962H583.34v29.78h35.73v12.64H569.9V915.29h49.17Z" transform="translate(-160.5 -100.5)"/><path class="cls-1" d="M690.55,966.42l27.59,38H701.69l-25.45-36.48h-2.42v36.48H660.37V915.29h15.75q17.67,0,25.51,6.64,8.65,7.38,8.66,19.5a25.35,25.35,0,0,1-5.42,16.28A24.14,24.14,0,0,1,690.55,966.42Zm-16.73-10.21h4.27q19.1,0,19.1-14.6,0-13.68-18.58-13.68h-4.79Z" transform="translate(-160.5 -100.5)"/><path class="cls-1" d="M755.17,1004.4V909.23l65,68V915.29H833.6v94.54l-65-67.82v62.39Z" transform="translate(-160.5 -100.5)"/></g></svg>